# xmcd
#
# Track frame offsets:
#	150
#	8705
#	18157
#	26457
#	34552
#	43070
#	51792
#	60505
#	69185
#	78747
#	87560
#	97330
#	107340
#	116795
#	128115
#	136967
#	144685
#	156260
#	168562
#	178292
#	189115
#	198295
#	207630
#	217772
#	228130
#	237862
#	246237
#	256510
#
# Disc length: 3550 seconds
# Revision: 7
# Processed by: cddbd v1.5.2PL0 Copyright (c) Steve Scherf et al.
# Submitted via: dBpowerAMP V12.0
#
DISCID=7c0ddc1c
DTITLE=Johnny Cash - The Man in Black: 1959-1962 [CD2]
DYEAR=1991
DGENRE=Country
TTITLE0=I'll Remember You [Later Version]
TTITLE1=I Got Stripes
TTITLE2=You Dreamer You
TTITLE3=Five Feet High And Rising
TTITLE4=The Rebel Johnny Yuma
TTITLE5=Lorena
TTITLE6=Second Honeymoon
TTITLE7=The Fable Of Willie Brown
TTITLE8=Smiling Bill McCall
TTITLE9=Johnny Yuma Theme
TTITLE10=The Man On The Hill
TTITLE11=Hank And Joe And Me
TTITLE12=The Caretaker
TTITLE13=Clementine
TTITLE14=I Want To Go Home
TTITLE15=Old Apache Squaw
TTITLE16=Don't Step On Mother's Roses
TTITLE17=My Grandfather's Clock
TTITLE18=I Couldn't Keep From Crying [Later Version]
TTITLE19=My Shoes Keep Walking Back To You
TTITLE20=I Will Miss You When You Go
TTITLE21=I Feel Better All Over
TTITLE22=Bandana
TTITLE23=Wabash Blues
TTITLE24=Viel Zu Spät
TTITLE25=Wo Ist Zuhause, Mama
TTITLE26=Heartbeat  [Vocal: Roy Rivers]
TTITLE27=Hello Again  [Vocal: Roy Rivers]
EXTD=
EXTT0=
EXTT1=
EXTT2=
EXTT3=
EXTT4=
EXTT5=
EXTT6=
EXTT7=
EXTT8=
EXTT9=
EXTT10=
EXTT11=
EXTT12=
EXTT13=
EXTT14=
EXTT15=
EXTT16=
EXTT17=
EXTT18=
EXTT19=
EXTT20=
EXTT21=
EXTT22=
EXTT23=
EXTT24=
EXTT25=
EXTT26=
EXTT27=
PLAYORDER=
